<?xml version="1.0" encoding="UTF-8" standalone="no"?>
<!DOCTYPE svg PUBLIC "-//W3C//DTD SVG 1.1//EN" "http://www.w3.org/Graphics/SVG/1.1/DTD/svg11.dtd">
<svg version="1.1" xmlns="http://www.w3.org/2000/svg" xmlns:xlink="http://www.w3.org/1999/xlink" preserveAspectRatio="xMidYMid meet" viewBox="0 0 640 640" width="640" height="640"><defs><path d="M213.42 222.39L228.42 222.39L228.42 340.76L213.42 340.76L213.42 222.39Z" id="d4RQfJZ3N6"></path><path d="M200.87 222.39L213.86 228.31L131.49 340.89L118.5 334.97L200.87 222.39Z" id="d1E8MlRei9"></path><path d="M118.91 334.85L131.9 340.76L118.91 340.76L118.91 334.85Z" id="eOakEi0Hx"></path><path d="M213.42 228.31L200.43 222.39L213.42 222.39L213.42 228.31Z" id="b1d1PE7YUs"></path><path d="M228.42 227.97L241.41 222.05L278.91 273.31L265.92 279.23L228.42 227.97Z" id="a9UItR7RK"></path><path d="M228.42 228.31L241.41 222.39L228.42 222.39L228.42 228.31Z" id="czIwHXADA"></path><path d="M328.74 222.05L313.74 222.05L313.74 340.43L328.74 340.43L328.74 222.05Z" id="a7CHQjLiUT"></path><path d="M341.29 222.05L328.3 227.97L410.66 340.56L423.65 334.64L341.29 222.05Z" id="e1hVOVRsuq"></path><path d="M423.25 334.51L410.26 340.43L423.25 340.43L423.25 334.51Z" id="gbTeLAY4s"></path><path d="M328.3 227.97L341.29 222.05L328.3 222.05L328.3 227.97Z" id="gA36EIOUe"></path><path d="M313.74 227.97L300.75 222.05L263.25 273.31L276.24 279.23L313.74 227.97Z" id="f92xQKLvk"></path><path d="M313.74 227.97L300.75 222.05L313.74 222.05L313.74 227.97Z" id="a4V8P5MXwG"></path><path d="M275.32 279.23L275.32 279.23L266.1 279.23L275.32 279.23Z" id="a5sF3LoA4"></path><path d="M266.1 275.46L276.1 275.46L276.1 279.23L266.1 279.23L266.1 275.46Z" id="d1PCyKiUP7"></path><path d="M313.74 222.05L388.74 222.05L388.74 231.92L313.74 231.92L313.74 222.05Z" id="b5mNnIgbCY"></path><path d="M376.24 222.05L388.74 222.05L388.74 287.55L376.24 287.55L376.24 222.05Z" id="a4fWeFJyd"></path></defs><g><g><g><use xlink:href="#d4RQfJZ3N6" opacity="1" fill="#ffffff" fill-opacity="1"></use></g><g><use xlink:href="#d1E8MlRei9" opacity="1" fill="#ffffff" fill-opacity="1"></use></g><g><use xlink:href="#eOakEi0Hx" opacity="1" fill="#ffffff" fill-opacity="1"></use></g><g><use xlink:href="#b1d1PE7YUs" opacity="1" fill="#ffffff" fill-opacity="1"></use></g><g><use xlink:href="#a9UItR7RK" opacity="1" fill="#ffffff" fill-opacity="1"></use></g><g><use xlink:href="#czIwHXADA" opacity="1" fill="#ffffff" fill-opacity="1"></use></g><g><use xlink:href="#a7CHQjLiUT" opacity="1" fill="#ffffff" fill-opacity="1"></use></g><g><use xlink:href="#e1hVOVRsuq" opacity="1" fill="#ffffff" fill-opacity="1"></use></g><g><use xlink:href="#gbTeLAY4s" opacity="1" fill="#ffffff" fill-opacity="1"></use></g><g><use xlink:href="#gA36EIOUe" opacity="1" fill="#ffffff" fill-opacity="1"></use></g><g><use xlink:href="#f92xQKLvk" opacity="1" fill="#ffffff" fill-opacity="1"></use></g><g><use xlink:href="#a4V8P5MXwG" opacity="1" fill="#ffffff" fill-opacity="1"></use></g><g><use xlink:href="#a5sF3LoA4" opacity="1" fill="#ffffff" fill-opacity="1"></use></g><g><use xlink:href="#d1PCyKiUP7" opacity="1" fill="#ffffff" fill-opacity="1"></use></g><g><use xlink:href="#b5mNnIgbCY" opacity="1" fill="#ffffff" fill-opacity="1"></use></g><g><use xlink:href="#a4fWeFJyd" opacity="1" fill="#ffffff" fill-opacity="1"></use></g></g></g></svg>