<?xml version="1.0" encoding="UTF-8" standalone="no"?>
<!DOCTYPE svg PUBLIC "-//W3C//DTD SVG 1.1//EN" "http://www.w3.org/Graphics/SVG/1.1/DTD/svg11.dtd">
<svg version="1.1" xmlns="http://www.w3.org/2000/svg" xmlns:xlink="http://www.w3.org/1999/xlink" preserveAspectRatio="xMidYMid meet" viewBox="0 0 640 640" width="640" height="640"><defs><path d="M213.42 222.48L228.42 222.48L228.42 372.48L213.42 372.48L213.42 222.48Z" id="b34ZspZt4H"></path><path d="M200.87 222.48L213.86 229.98L131.49 372.64L118.5 365.14L200.87 222.48Z" id="c869CpWdJ"></path><path d="M118.91 364.98L131.9 372.48L118.91 372.48L118.91 364.98Z" id="b1D125F0BC"></path><path d="M213.42 229.98L200.43 222.48L213.42 222.48L213.42 229.98Z" id="ikPmvYst4"></path><path d="M228.42 229.55L241.41 222.05L278.91 287L265.92 294.5L228.42 229.55Z" id="b1OGu3gH5J"></path><path d="M228.42 229.98L241.41 222.48L228.42 222.48L228.42 229.98Z" id="h3qXQr2Dt"></path><path d="M328.74 222.05L313.74 222.05L313.74 372.05L328.74 372.05L328.74 222.05Z" id="aaMV6SmRO"></path><path d="M341.29 222.05L328.3 229.55L410.66 372.21L423.65 364.71L341.29 222.05Z" id="a77m2pHfb"></path><path d="M423.25 364.55L410.26 372.05L423.25 372.05L423.25 364.55Z" id="c1d45NVzZA"></path><path d="M328.3 229.55L341.29 222.05L328.3 222.05L328.3 229.55Z" id="agUhjzFKQ"></path><path d="M313.74 229.55L300.75 222.05L263.25 287L276.24 294.5L313.74 229.55Z" id="aZe0CeBJi"></path><path d="M313.74 229.55L300.75 222.05L313.74 222.05L313.74 229.55Z" id="e3QZ82aGdf"></path><path d="M275.32 294.5L275.32 294.5L266.1 294.5L275.32 294.5Z" id="m6v91YW9wc"></path><path d="M266.1 289.72L276.1 289.72L276.1 294.5L266.1 294.5L266.1 289.72Z" id="bDvQC1DNh"></path><path d="M313.74 222.05L388.74 222.05L388.74 234.55L313.74 234.55L313.74 222.05Z" id="a26A3Yzwu9"></path><path d="M376.24 222.05L388.74 222.05L388.74 305.05L376.24 305.05L376.24 222.05Z" id="cgdwnHQA"></path></defs><g><g><g><use xlink:href="#b34ZspZt4H" opacity="1" fill="#000000" fill-opacity="1"></use></g><g><use xlink:href="#c869CpWdJ" opacity="1" fill="#000000" fill-opacity="1"></use></g><g><use xlink:href="#b1D125F0BC" opacity="1" fill="#000000" fill-opacity="1"></use></g><g><use xlink:href="#ikPmvYst4" opacity="1" fill="#000000" fill-opacity="1"></use></g><g><use xlink:href="#b1OGu3gH5J" opacity="1" fill="#000000" fill-opacity="1"></use></g><g><use xlink:href="#h3qXQr2Dt" opacity="1" fill="#000000" fill-opacity="1"></use></g><g><use xlink:href="#aaMV6SmRO" opacity="1" fill="#000000" fill-opacity="1"></use></g><g><use xlink:href="#a77m2pHfb" opacity="1" fill="#000000" fill-opacity="1"></use></g><g><use xlink:href="#c1d45NVzZA" opacity="1" fill="#000000" fill-opacity="1"></use></g><g><use xlink:href="#agUhjzFKQ" opacity="1" fill="#000000" fill-opacity="1"></use></g><g><use xlink:href="#aZe0CeBJi" opacity="1" fill="#000000" fill-opacity="1"></use></g><g><use xlink:href="#e3QZ82aGdf" opacity="1" fill="#000000" fill-opacity="1"></use></g><g><use xlink:href="#m6v91YW9wc" opacity="1" fill="#262513" fill-opacity="1"></use></g><g><use xlink:href="#bDvQC1DNh" opacity="1" fill="#000000" fill-opacity="1"></use></g><g><use xlink:href="#a26A3Yzwu9" opacity="1" fill="#000000" fill-opacity="1"></use></g><g><use xlink:href="#cgdwnHQA" opacity="1" fill="#000000" fill-opacity="1"></use></g></g></g></svg>